<svg width="9066" height="2220" viewBox="0 0 9066 2220" fill="none" xmlns="http://www.w3.org/2000/svg">
<path d="M7006.76 5.43904C6912.41 13.4786 6878.27 35.5873 6873 45.6367C7263.72 48.5081 7918.6 61.429 7918.6 61.429C7918.6 61.429 8200.98 71.4784 8226.38 78.6566C8253.71 88.706 8308.08 103.062 8335.69 149.003C8363.3 194.943 8370.21 258.11 8370.21 283.952L8377.4 439L8455.06 405.98L8532.73 439C8533.69 420.337 8535.03 365.783 8532.73 296.872C8530.43 227.962 8513.55 185.85 8505.4 173.408C8498.69 152.352 8471.75 100.478 8417.67 61.429C8364.74 17.7858 8294.94 5.9177 8266.65 5.43904H7766.15C7552.33 2.08924 7101.1 -2.60049 7006.76 5.43904Z" fill="#1A498E" stroke="#1A498E"/>
<path d="M7975.4 1153.86C7975.4 1153.86 8230 1134.02 8230 721.69C8230 148.425 7850.84 137.138 7850.84 137.138C7850.84 137.138 7248.27 89.0805 6939.19 65.3085C6630.28 41.5365 6620 349.547 6620 349.547V489.956H6648.61C6661.98 489.956 6672.94 500.73 6672.94 514.241V669.187C6672.94 682.526 6662.15 693.472 6648.61 693.472H6620V1225.52H6648.61C6661.98 1225.52 6672.94 1236.29 6672.94 1249.81V1404.75C6672.94 1418.09 6662.15 1429.04 6648.61 1429.04H6620V1620.07C6620 1814.86 6880.25 1919.36 6880.25 1919.36C6880.25 1919.36 7400.93 2060.62 7672.49 2138.78C7944.05 2216.93 8227.09 2086.1 8227.09 1631.36C8227.09 1176.44 7975.4 1153.86 7975.4 1153.86Z" fill="#004B93"/>
<path d="M7487.98 1078.49C7468.3 951.026 7348.87 914.241 7348.87 914.241C7275.29 887.38 7207.02 936.654 7189.23 965.398C7171.26 994.142 7138.92 1081.06 7200.01 1176.18C7261.09 1271.31 7353.49 1275.76 7393.02 1262.24C7432.2 1248.9 7507.66 1205.95 7487.98 1078.49ZM7360.5 1175.33C7340.66 1182.17 7294.29 1179.78 7263.66 1132.04C7233.03 1084.31 7249.29 1040.51 7258.18 1026.14C7267.25 1011.76 7301.47 986.956 7338.43 1000.47C7338.43 1000.47 7398.32 1018.95 7408.24 1082.94C7418.17 1146.93 7380.18 1168.49 7360.5 1175.33Z" fill="white"/>
<path d="M7300.1 921.941V822.365C7300.1 822.365 7284.02 811.586 7283.33 801.492C7282.65 791.397 7276.66 515.425 7276.66 515.425C7276.66 515.425 7275.98 491.13 7298.91 493.183C7321.83 495.236 7355.37 501.224 7355.37 501.224C7355.37 501.224 7370.77 507.212 7370.77 524.835C7370.77 542.286 7366.66 810.218 7366.66 810.218C7366.66 810.218 7360.67 830.406 7347.84 830.406V927.245L7300.1 921.941Z" fill="white"/>
<path d="M7456.32 1026.82L7548.54 1011.42C7548.54 1011.42 7548.54 990.548 7564.63 987.126C7580.71 983.704 7824.37 935.285 7824.37 935.285C7824.37 935.285 7853.29 929.297 7861.33 950.17C7869.37 971.044 7880.15 1015.53 7880.15 1015.53C7880.15 1015.53 7885.45 1041.7 7863.38 1045.13C7841.14 1048.55 7593.55 1080.2 7593.55 1080.2C7593.55 1080.2 7569.93 1078.83 7566.68 1065.32L7479.93 1078.15L7456.32 1026.82Z" fill="white"/>
<path d="M7442.8 1228.03L7491.91 1312.2C7491.91 1312.2 7508.68 1309.47 7516.89 1320.24C7525.1 1331.02 7691.93 1590.06 7691.93 1590.06C7691.93 1590.06 7700.66 1615.04 7687.83 1623.76C7674.99 1632.49 7644.02 1651.31 7644.02 1651.31C7644.02 1651.31 7623.15 1664.14 7608.94 1640.53C7594.74 1616.92 7452.9 1367.29 7452.9 1367.29C7452.9 1367.29 7440.75 1349.16 7452.9 1337.18L7396.77 1240.34L7442.8 1228.03Z" fill="white"/>
<path d="M7210.61 1178.24L7162.19 1242.91C7162.19 1242.91 7142 1237.61 7131.22 1249.58C7120.44 1261.73 6985.09 1427.86 6985.09 1427.86C6985.09 1427.86 6971.57 1444.63 6983.72 1460.2C6995.87 1475.6 7030.09 1509.3 7030.09 1509.3C7030.09 1509.3 7045.49 1524.19 7059.01 1507.25C7072.53 1490.48 7198.97 1312.72 7198.97 1312.72C7198.97 1312.72 7208.38 1298.52 7200.34 1282.43L7254.24 1210.4L7210.61 1178.24Z" fill="white"/>
<path d="M7170.91 1022.89L7096.83 981.139C7096.83 981.139 7090.15 994.655 7073.9 988.496C7057.81 982.508 6840.34 873.351 6840.34 873.351C6840.34 873.351 6818.09 863.941 6825.45 841.014C6832.81 818.088 6844.96 787.12 6844.96 787.12C6844.96 787.12 6852.31 775.657 6869.25 783.014C6886.02 790.371 7098.71 910.82 7098.71 910.82C7098.71 910.82 7114.11 920.914 7113.59 936.313L7189.56 975.322L7170.91 1022.89Z" fill="white"/>
<path d="M7652.07 1179.44C7648.99 1178.75 7644.38 1178.07 7639.76 1177.04C7623.5 1173.79 7607.25 1170.54 7590.99 1166.95C7576.1 1163.7 7566.86 1148.98 7570.8 1135.29C7573.02 1127.6 7580.72 1122.12 7588.59 1123.66C7609.13 1127.6 7629.66 1131.53 7650.02 1136.15C7664.74 1139.57 7673.12 1154.46 7669.01 1168.14C7667.13 1174.82 7660.29 1179.78 7652.07 1179.44Z" fill="white"/>
<path d="M7656.35 1248.9C7656.52 1262.76 7643.34 1271.31 7630.85 1265.33C7611.52 1255.92 7592.35 1246.16 7573.19 1236.41C7561.73 1230.59 7555.91 1216.91 7559.84 1206.13C7563.27 1196.72 7573.87 1192.44 7582.94 1196.72C7602.11 1206.13 7621.27 1215.54 7640.43 1225.12C7649.85 1229.74 7656.35 1239.49 7656.35 1248.9Z" fill="white"/>
<path d="M7528.87 963.005C7519.63 961.978 7510.56 955.134 7507.48 946.067C7504.23 936.485 7506.63 927.246 7514.33 921.429C7528.36 910.992 7542.22 900.556 7556.42 890.29C7566.34 883.104 7578.49 885.671 7586.19 895.936C7593.72 906.031 7592.87 919.205 7583.46 926.391C7568.91 937.341 7554.37 948.12 7539.48 958.556C7536.4 960.78 7532.47 961.465 7528.87 963.005Z" fill="white"/>
<path d="M7619.22 1328.12C7619.22 1335.65 7616.14 1341.12 7609.81 1344.2C7602.11 1347.79 7594.75 1345.4 7588.59 1340.44C7571.65 1326.41 7555.05 1312.03 7538.46 1297.66C7533.15 1293.04 7529.56 1287.4 7529.05 1280.04C7528.53 1272.34 7530.07 1265.67 7537.43 1261.73C7543.08 1258.65 7552.66 1259.85 7558.3 1264.47C7574.9 1278.5 7591.5 1292.53 7608.1 1306.73C7614.6 1312.21 7619.39 1319.05 7619.22 1328.12Z" fill="white"/>
<path d="M7451.36 877.285C7453.24 872.837 7454.44 868.046 7457.01 864.282C7466.59 850.082 7476.69 836.394 7486.61 822.365C7491.57 815.35 7497.9 810.73 7506.8 813.297C7516.04 815.863 7522.37 822.364 7524.42 831.946C7525.96 838.96 7524.59 845.462 7520.15 851.279C7509.71 865.48 7499.78 880.023 7489.35 894.223C7482.85 903.291 7470.18 904.318 7461.8 896.79C7455.3 891.315 7452.56 885.498 7451.36 877.285Z" fill="white"/>
<path d="M7449.31 787.464C7448.28 790.715 7446.91 796.019 7445.03 801.323C7439.9 816.037 7434.59 830.751 7429.63 845.636C7427.23 852.822 7422.96 857.783 7415.6 858.981C7407.73 860.178 7401.23 856.586 7396.26 850.426C7391.3 844.096 7389.25 836.739 7391.64 829.211C7397.63 810.39 7403.62 791.57 7410.64 773.092C7415.77 759.747 7427.92 757.181 7439.38 765.735C7445.54 770.184 7449.48 778.225 7449.31 787.464Z" fill="white"/>
<path d="M7372.65 1369.52C7372.65 1361.82 7376.93 1354.81 7382.58 1352.75C7389.94 1350.02 7397.81 1352.41 7404.14 1358.74C7410.81 1365.42 7411.84 1374.48 7413.89 1382.87C7418.17 1399.98 7422.1 1417.09 7426.04 1434.19C7428.95 1446.68 7420.74 1457.12 7408.76 1456.09C7400.54 1455.41 7390.62 1446.51 7388.23 1436.93C7383.09 1415.72 7378.13 1394.33 7373 1372.94C7372.83 1371.57 7372.83 1370.21 7372.65 1369.52Z" fill="white"/>
<path d="M7344.76 1403.4C7344.76 1413.32 7344.76 1423.24 7344.76 1433.17C7344.76 1440.18 7342.2 1445.83 7335.52 1448.91C7328.68 1451.99 7322.52 1450.1 7316.87 1445.83C7309.34 1440.01 7305.92 1432.31 7305.92 1422.9C7305.92 1404.42 7305.92 1385.77 7305.92 1367.3C7305.92 1357.03 7309.17 1351.21 7316.53 1348.65C7324.06 1346.08 7333.13 1348.65 7338.09 1356.69C7341.34 1361.99 7343.74 1368.49 7344.42 1374.48C7345.45 1383.89 7344.76 1393.64 7344.76 1403.4Z" fill="white"/>
<path d="M7257.67 812.614C7257.67 822.366 7253.4 829.039 7246.55 831.434C7240.05 833.829 7229.44 830.408 7225.33 823.222C7221.06 815.522 7218.49 806.797 7215.75 798.242C7211.64 785.581 7207.71 772.92 7203.95 760.088C7202.92 756.838 7202.23 753.416 7201.89 749.994C7201.04 741.782 7204.63 734.596 7210.79 731.858C7218.32 728.436 7226.02 729.463 7231.66 736.478C7235.43 741.268 7238.34 747.085 7240.22 752.903C7246.21 770.867 7251.51 789.003 7256.99 806.968C7257.67 809.363 7257.67 811.758 7257.67 812.614Z" fill="white"/>
<path d="M7275.98 1348.82C7274.96 1353.27 7273.93 1358.4 7272.56 1363.36C7268.8 1377.56 7264.69 1391.76 7261.1 1405.96C7259.39 1412.46 7256.65 1417.6 7249.63 1419.48C7241.76 1421.7 7235.94 1417.94 7230.81 1412.81C7221.57 1403.4 7222.94 1392.45 7226.19 1380.98C7230.13 1366.95 7234.57 1353.1 7237.31 1338.72C7240.05 1324.69 7253.57 1317.85 7266.06 1328.29C7272.05 1333.59 7275.13 1340.26 7275.98 1348.82Z" fill="white"/>
<path d="M7197.45 838.621C7196.59 847.689 7192.65 853.506 7184.78 856.073C7178.45 858.126 7169.9 855.217 7165.11 848.031C7159.8 840.161 7155.18 831.777 7150.39 823.565C7143.89 812.273 7137.39 801.152 7131.23 789.86C7127.46 783.016 7126.95 775.488 7130.88 768.644C7137.39 757.352 7152.27 757.865 7160.31 769.671C7165.79 777.712 7170.41 786.267 7175.2 794.65C7181.53 805.6 7187.86 816.379 7193.85 827.5C7195.56 830.922 7196.25 834.857 7197.45 838.621Z" fill="white"/>
<path d="M7148.51 879.513C7148.51 886.528 7145.94 892.174 7139.44 895.425C7131.74 899.189 7124.56 896.793 7119.25 890.976C7104.36 875.065 7089.65 858.982 7075.45 842.386C7069.97 836.055 7068.26 828.356 7071.85 820.144C7076.3 809.707 7088.45 806.456 7096.84 814.156C7104.19 820.828 7110.7 828.356 7117.37 835.542C7125.41 844.097 7133.28 852.823 7140.98 861.548C7146.63 867.879 7148.51 872.498 7148.51 879.513Z" fill="white"/>
<path d="M7045.84 1213.31C7046.35 1207.32 7048.75 1201.68 7055.08 1198.6C7069.45 1191.24 7084 1183.89 7098.54 1176.87C7109.15 1171.74 7120.1 1176.36 7125.57 1188.16C7130.54 1198.94 7128.31 1210.4 7117.7 1215.54C7103.5 1222.21 7089.64 1229.4 7075.61 1236.41C7060.73 1243.94 7046.35 1228.71 7045.84 1213.31Z" fill="white"/>
<path d="M7073.57 1105.7C7086.57 1104.5 7092.9 1108.95 7097.35 1115.96C7101.97 1123.32 7103.34 1131.36 7098.38 1139.4C7093.93 1146.59 7086.23 1146.42 7079.38 1147.61C7066.72 1149.84 7053.89 1151.38 7041.06 1153.43C7031.99 1154.97 7022.92 1151.38 7018.13 1143.68C7013.16 1135.81 7011.45 1127.6 7017.1 1119.38C7018.98 1116.65 7022.75 1114.08 7026 1113.39C7043.11 1110.31 7060.39 1107.75 7073.57 1105.7Z" fill="white"/>
<path d="M7090.16 1054.37C7090.33 1065.15 7082.46 1073.02 7071.51 1071.31C7055.08 1068.4 7038.31 1066.52 7021.72 1064.12C7007.34 1062.07 6998.1 1048.55 7001.18 1034.52C7003.07 1026.65 7009.57 1021.86 7017.44 1022.89C7034.72 1025.28 7052 1027.68 7069.28 1030.24C7081.43 1032.13 7089.99 1042.22 7090.16 1054.37Z" fill="white"/>
<path d="M8185.53 5.01066C8457.73 -19.4145 8531.26 184.806 8534 285.899V442L8453.01 405.266L8372.01 442C8372.01 442 8372.22 426.969 8370.38 285.899C8367.09 34.0488 8122.55 32.8285 8000 57.2536C8000 57.2536 8054.94 33.6161 8091.74 23.3298C8127.67 13.2872 8185.53 5.01066 8185.53 5.01066Z" fill="#1A498E"/>
<path d="M8533.98 1938.03C8537.22 2244.2 8178.91 2240.97 8000 2201.07C8312.97 2161.04 8371.58 2064.48 8371.58 1938.03V1791L8452.19 1823.43L8533.98 1791C8533.98 1791 8532.81 1827.61 8533.98 1938.03Z" fill="#1A498E"/>
<path d="M8853.11 954.617L8989.37 883.645L8853.11 815.429L8716.85 883.645L8853.11 954.617Z" fill="#3DA9FC"/>
<path d="M8988.06 1048.83L8988.06 885.111L8860.27 950.911L8860.27 1113.12L8988.06 1048.83Z" fill="#0070FD"/>
<path d="M8733.69 1042.45L8733.69 898.504L8846.04 956.354L8846.04 1098.96L8733.69 1042.45Z" fill="#004B93"/>
<path fill-rule="evenodd" clip-rule="evenodd" d="M8857.7 803.471C8854.56 801.789 8850.79 801.793 8847.65 803.48L8709.06 878.015C8708.26 878.444 8707.77 879.277 8707.77 880.183V997.311C8707.77 1006.7 8717.9 1012.59 8726.05 1007.95C8729.88 1005.78 8732.24 1001.72 8732.24 997.317L8732.29 906.181L8840.42 962.064V1094.83L8763.19 1056.85C8759.43 1055 8754.98 1055.22 8751.42 1057.43C8743.35 1062.44 8743.89 1074.36 8752.38 1078.62L8851.63 1128.45C8852.28 1128.77 8853.06 1128.77 8853.71 1128.43L8992.46 1055.86C8995.96 1054.03 8998.16 1050.4 8998.16 1046.44V885.06C8998.16 881.142 8996.01 877.543 8992.55 875.693L8857.7 803.471ZM8973.64 906.142V1038.03L8864.95 1094.87V962.078L8973.64 906.142ZM8746.32 885.824L8852.7 940.801L8959.52 885.824L8852.7 828.612L8746.32 885.824Z" fill="white"/>
<rect width="23.4422" height="185.135" rx="11.7211" transform="matrix(0.5 0.866025 0.866025 -0.5 8624.63 1085.76)" fill="#002E9F"/>
<path d="M8450.42 1617.97L8586.68 1547L8450.42 1478.79L8314.17 1547L8450.42 1617.97Z" fill="#3DA9FC"/>
<path d="M8584.78 1696.43L8584.78 1532.71L8456.98 1598.51L8456.98 1760.71L8584.78 1696.43Z" fill="#0070FD"/>
<path d="M8317.06 1696.43L8317.06 1532.71L8444.85 1598.51L8444.85 1760.71L8317.06 1696.43Z" fill="#004B93"/>
<path fill-rule="evenodd" clip-rule="evenodd" d="M8478.03 1485.88C8478.03 1489.93 8480.27 1493.66 8483.85 1495.57L8555.81 1533.9L8448.81 1588.96L8342.26 1533.9L8412.96 1495.94C8416.94 1493.8 8419.43 1489.65 8419.43 1485.13C8419.43 1475.86 8409.53 1469.94 8401.36 1474.33L8309.22 1523.78C8305.79 1525.63 8303.64 1529.2 8303.64 1533.1V1694.82C8303.64 1698.75 8305.82 1702.35 8309.3 1704.18L8443.88 1774.86C8446.95 1776.47 8450.62 1776.48 8453.7 1774.87L8588.84 1704.19C8592.32 1702.36 8594.51 1698.75 8594.51 1694.82V1533.1C8594.51 1529.2 8592.36 1525.61 8588.92 1523.77L8496.25 1474.23C8488 1469.82 8478.03 1475.79 8478.03 1485.14V1485.88ZM8569.95 1554.25V1686.35L8461.08 1743.29V1610.28L8569.95 1554.25ZM8436.52 1610.26V1743.25L8328.21 1686.36V1554.29L8436.52 1610.26Z" fill="white"/>
<rect width="23.4422" height="237.352" rx="11.7211" transform="matrix(-1 0 0 1 8460.45 1293.06)" fill="#002E9F"/>
<path d="M8449.01 1114.09L8642.41 1013.35L8449.01 916.528L8255.6 1013.35L8449.01 1114.09Z" fill="#3DA9FC"/>
<path d="M8640.04 1246.58L8640.04 1014.19L8458.64 1107.59L8458.64 1337.82L8640.04 1246.58Z" fill="#0070FD"/>
<path d="M8260.04 1246.58L8260.04 1014.19L8441.44 1107.59L8441.44 1337.82L8260.04 1246.58Z" fill="#004B93"/>
<path fill-rule="evenodd" clip-rule="evenodd" d="M8456.66 893.251C8452.13 890.828 8446.7 890.833 8442.18 893.264L8247.28 998.08C8242.32 1000.75 8239.22 1005.93 8239.22 1011.57V1245.77C8239.22 1251.46 8242.38 1256.68 8247.42 1259.33L8442.31 1361.69C8446.76 1364.02 8452.07 1364.03 8456.53 1361.7L8652.23 1259.34C8657.28 1256.7 8660.45 1251.47 8660.45 1245.77V1011.56C8660.45 1005.92 8657.34 1000.73 8652.37 998.065L8456.66 893.251ZM8624.88 1042.2V1233.51L8467.22 1315.96V1123.34L8624.88 1042.2ZM8431.64 1123.32V1315.9L8274.8 1233.53V1042.26L8431.64 1123.32ZM8295.14 1012.73L8449.45 1092.48L8604.4 1012.73L8449.45 929.744L8295.14 1012.73Z" fill="white"/>
<rect width="23.4422" height="254.934" rx="11.7211" transform="matrix(-1 0 0 1 8460.45 758.292)" fill="#002E9F"/>
<rect width="23.4422" height="254.934" rx="11.7211" transform="matrix(-0.5 0.866025 0.866025 0.5 8548.82 1172.93)" fill="#002E9F"/>
<path d="M8853.11 1357.53L8989.37 1286.56L8853.11 1218.34L8716.85 1286.56L8853.11 1357.53Z" fill="#3DA9FC"/>
<path d="M8987.7 1450.87L8987.7 1287.15L8859.9 1352.95L8859.9 1515.16L8987.7 1450.87Z" fill="#0070FD"/>
<path d="M8719.98 1450.87L8719.98 1287.15L8847.77 1352.95L8847.77 1515.16L8719.98 1450.87Z" fill="#004B93"/>
<path fill-rule="evenodd" clip-rule="evenodd" d="M8857.68 1204.92C8854.54 1203.24 8850.77 1203.24 8847.63 1204.93L8713.34 1277.15C8709.89 1279 8707.74 1282.6 8707.74 1286.51V1447.89C8707.74 1451.84 8709.93 1455.46 8713.43 1457.3L8847.72 1527.83C8850.81 1529.45 8854.5 1529.45 8857.59 1527.84L8992.44 1457.31C8995.94 1455.47 8998.14 1451.85 8998.14 1447.89V1286.51C8998.14 1282.59 8995.98 1278.99 8992.53 1277.14L8857.68 1204.92ZM8973.62 1307.59V1439.47L8864.93 1496.32V1363.53L8973.62 1307.59ZM8840.4 1363.51V1496.28L8732.27 1439.49V1307.63L8840.4 1363.51ZM8746.3 1287.27L8852.68 1342.25L8959.5 1287.27L8852.68 1230.06L8746.3 1287.27Z" fill="white"/>
<path d="M8448.73 620.57L8584.99 549.598L8448.73 481.382L8312.47 549.598L8448.73 620.57Z" fill="#3DA9FC"/>
<path d="M8583.33 713.91L8583.33 550.188L8455.53 615.988L8455.53 778.194L8583.33 713.91Z" fill="#0070FD"/>
<path d="M8315.6 713.91L8315.6 550.188L8443.39 615.988L8443.39 778.194L8315.6 713.91Z" fill="#004B93"/>
<path fill-rule="evenodd" clip-rule="evenodd" d="M8454.56 466.495C8451.42 464.814 8447.65 464.817 8444.51 466.504L8309.27 539.238C8305.83 541.09 8303.68 544.685 8303.68 548.596V711.113C8303.68 715.061 8305.87 718.684 8309.37 720.52L8444.6 791.549C8447.69 793.171 8451.38 793.174 8454.47 791.558L8590.27 720.531C8593.78 718.698 8595.97 715.07 8595.97 711.115V548.594C8595.97 544.676 8593.82 541.076 8590.37 539.227L8454.56 466.495ZM8571.29 569.855V702.602L8461.89 759.82V626.157L8571.29 569.855ZM8437.2 626.143V759.78L8328.37 702.616V569.894L8437.2 626.143ZM8342.48 549.404L8449.56 604.741L8557.08 549.404L8449.56 491.818L8342.48 549.404Z" fill="white"/>
<path d="M8701 30.831H8830.84V67.3755H8783.99V222.951H8746.03V67.3755H8701V30.831Z" fill="#1A498E"/>
<path d="M8867.48 222.951V23H8867.74L8974.81 174.399L8958.58 170.744L9065.39 23H9065.91V222.951H9027.95V108.358L9030.31 127.935L8965.12 220.34H8964.6L8897.58 127.935L8904.13 109.924V222.951H8867.48Z" fill="#1A498E"/>
<path d="M5481.59 412.618H6343.28V613.823H6011.33V1699.58H5802.93V613.994H5481.59V412.618Z" fill="#1B4A8E"/>
<path d="M5297.99 697.147C5250.93 672.852 5168.12 637.949 5116.44 621.695C5065.97 604.415 5017.2 595.689 4970.15 595.689C4906.67 595.689 4856.7 609.548 4820.26 637.436C4783.81 664.126 4765.67 702.28 4765.67 752.068C4765.67 785.602 4777.99 815.201 4802.63 840.523C4828.47 866.016 4861.32 888.6 4901.36 908.276C4941.23 927.951 4983.66 945.916 5028.32 962.17C5080 980.648 5129.96 1004.43 5178.21 1033.34C5227.49 1061.06 5267.53 1099.39 5297.99 1147.98C5329.64 1195.37 5345.55 1259.02 5345.55 1338.92C5345.55 1404.96 5328.44 1465.7 5294.39 1521.13C5260.34 1575.54 5211.58 1618.99 5148.1 1651.33C5084.62 1683.67 5007.1 1699.92 4915.39 1699.92C4836.68 1699.92 4759.68 1687.77 4684.57 1663.48C4595.76 1630.46 4580.19 1615.06 4550.59 1589.4V1393.84C4592.86 1425.15 4671.56 1463.13 4730.42 1486.23C4790.31 1508.3 4845.58 1519.25 4896.06 1519.25C4933.7 1519.25 4970.15 1513.43 5005.39 1501.97C5040.64 1490.33 5070.07 1471.34 5093.51 1444.65C5116.96 1417.96 5128.76 1382.72 5128.76 1338.74C5128.76 1304.01 5118.15 1273.9 5097.11 1248.41C5077.09 1222.92 5050.05 1201.02 5016 1182.37C4983.15 1163.89 4947.22 1147.12 4908.55 1132.06C4868.51 1117.01 4827.44 1100.24 4785.18 1081.76C4744.11 1063.29 4705.79 1040.7 4670.54 1014.01C4635.29 986.294 4606.54 952.76 4584.13 913.408C4561.71 872.859 4550.59 824.269 4550.59 767.637C4550.59 696.976 4567.02 636.238 4599.87 585.424C4632.72 533.411 4678.58 492.862 4737.27 463.948C4795.96 433.835 4863.03 417.068 4938.15 413.646C5029.86 413.646 5107.37 424.596 5170.85 446.667C5235.53 468.738 5248.37 474.555 5297.82 504.668V697.147H5297.99Z" fill="#1B4A8E"/>
<path d="M3536.27 412.618H4390.77V613.823H3744.5V952.929H4320.11V1154.13H3744.5V1498.37H4415.41V1699.58H3536.1V412.618H3536.27Z" fill="#1B4A8E"/>
<path d="M2609.89 1235.4C2609.89 1284.85 2622.9 1330.7 2648.74 1373.13C2674.57 1414.37 2709.31 1447.9 2752.94 1473.74C2797.6 1498.37 2846.54 1510.86 2899.58 1510.86C2957.24 1510.86 3007.89 1498.54 3051.35 1473.74C3096.01 1447.9 3131.43 1414.37 3157.27 1373.13C3183.1 1330.7 3196.11 1284.85 3196.11 1235.4V412.618H3400.92V1240.54C3400.92 1333.44 3378.51 1415.91 3333.85 1487.76C3289.19 1558.43 3228.45 1613.69 3151.96 1653.72C3076.67 1693.76 2992.49 1713.78 2899.41 1713.78C2807.52 1713.78 2723.34 1693.76 2646.85 1653.72C2571.57 1613.69 2511.51 1558.43 2466.68 1487.76C2423.05 1415.91 2401.32 1333.61 2401.32 1240.54V412.618H2609.72V1235.4H2609.89Z" fill="#1B4A8E"/>
<path d="M353.165 412.618C483.891 412.618 587.41 439.651 663.895 493.887C740.38 546.926 778.708 628.024 778.708 737.523C778.708 810.58 761.084 872.858 725.665 924.699C691.614 975.342 643.876 1014.69 582.619 1042.92C522.561 1069.96 452.578 1084.67 372.5 1087.07L342.556 975.855C437.863 977.053 522.732 992.28 596.821 1021.71C672.108 1049.94 731.653 1090.49 775.115 1143.53C818.747 1195.37 840.477 1257.65 840.477 1330.7C840.477 1397.77 828.158 1454.91 803.347 1501.97C779.734 1547.82 746.882 1585.46 704.447 1614.89C663.211 1644.31 616.841 1666.04 564.995 1680.24C513.15 1693.25 459.08 1699.75 402.615 1699.75H0V412.618H353.165ZM384.82 959.944C446.076 959.944 490.735 942.321 518.967 906.905C548.398 870.462 563.113 828.716 563.113 781.494C563.113 723.836 544.805 681.405 508.359 654.372C471.913 627.339 422.976 613.823 361.891 613.823H208.237V959.773H384.82V959.944ZM392.006 1505.56C457.882 1505.56 513.321 1492.04 557.98 1465.01C602.639 1436.78 625.054 1392.64 625.054 1332.58C625.054 1287.93 612.734 1253.71 587.924 1230.27C564.311 1205.63 533.854 1187.84 496.039 1177.23C458.396 1166.62 418.87 1161.32 377.804 1161.32H208.237V1505.56H392.006Z" fill="#1B4A8E"/>
<path d="M1887.65 1496.66C1887.65 1496.66 1855.14 1495.12 2117.96 1399.82C2380.78 1304.52 2332.36 1713.78 2332.36 1713.78C2178.02 1399.82 1861.64 1681.27 1725.79 1700.09L1612.34 1713.78L1887.65 1496.66ZM932.362 1057.12C932.362 968.841 949.473 885.348 983.523 806.474C1017.57 726.403 1064.8 656.426 1124.69 596.372C1184.75 535.121 1254.21 486.873 1333.09 451.628C1413.17 416.382 1497.87 398.589 1587.36 398.589C1678.05 398.589 1762.74 416.211 1841.62 451.628C1921.7 486.873 1992.37 535.121 2053.46 596.372C2114.71 656.426 2162.28 726.403 2196.5 806.474C2230.55 885.348 2247.66 968.841 2247.66 1057.12C2247.66 1149 2230.55 1234.21 2196.5 1313.08C2162.45 1391.95 2114.71 1461.93 2053.46 1523.18C1992.2 1583.23 1921.7 1630.29 1841.62 1664.33C1762.74 1697.35 1678.05 1713.78 1587.36 1713.78C1497.87 1713.78 1413.17 1697.35 1333.09 1664.33C1254.21 1630.29 1184.75 1583.75 1124.69 1524.89C1064.63 1464.84 1017.57 1394.86 983.523 1314.79C949.473 1234.72 932.362 1148.83 932.362 1057.12ZM1147.79 1058.84C1147.79 1141.3 1167.12 1217.1 1206.13 1286.56C1246.17 1354.83 1299.73 1409.58 1366.8 1450.81C1435.07 1490.84 1511.05 1510.86 1594.55 1510.86C1677.02 1510.86 1751.11 1490.84 1816.99 1450.81C1882.86 1409.58 1935.22 1354.83 1974.06 1286.56C2012.9 1217.1 2032.41 1140.62 2032.41 1057.12C2032.41 995.874 2020.6 938.215 1997.16 884.15C1974.75 828.887 1943.6 780.639 1903.57 739.406C1863.53 698.172 1816.47 665.836 1762.23 642.225C1709.19 618.614 1651.52 606.98 1589.24 606.98C1506.77 606.98 1432.17 627.511 1365.09 668.744C1298.02 708.78 1244.97 763.53 1206.13 832.993C1167.29 901.088 1147.79 976.369 1147.79 1058.84Z" fill="#1B4A8E"/>
<path d="M1591.53 1511.06C1840.87 1511.06 2042.99 1308.46 2042.99 1058.53C2042.99 808.605 1840.87 606 1591.53 606C1342.19 606 1140.07 808.605 1140.07 1058.53C1140.07 1308.46 1342.19 1511.06 1591.53 1511.06Z" fill="white"/>
<path d="M2042.93 1058.53C2042.93 1027.73 2039.81 997.622 2034 968.513L1888.86 766.755L1737.36 977.277L1763.9 1155.68L1799.68 1158.5L1816.79 1167.27L1800.56 1216.78L1478.87 876.304L1315.37 1235.5C1315.37 1235.5 1329.8 1337.6 1343.97 1436.88C1415.04 1483.71 1500.1 1511.06 1591.53 1511.06C1840.84 1511 2042.93 1308.43 2042.93 1058.53Z" fill="#020202" fill-opacity="0.1"/>
<path d="M1379.13 1359.38H1363.65C1289.39 1359.38 1228.62 1298.47 1228.62 1224.04V968.575C1228.62 894.145 1289.39 833.235 1363.65 833.235H1379.13C1453.39 833.235 1514.15 894.145 1514.15 968.575V1224.04C1514.15 1298.47 1453.39 1359.38 1379.13 1359.38Z" fill="black"/>
<path d="M1911.22 1377.98L1843.9 1156.56H1739.23C1690.33 1156.56 1650.3 1196.69 1650.3 1245.64V1505.43C1650.3 1505.99 1650.36 1506.49 1650.36 1507.06C1751.78 1493.85 1842.59 1447.02 1911.22 1377.98Z" fill="#E8C464"/>
<path d="M1932.83 1354.5V1256.47C1932.83 1201.51 1892.8 1156.56 1843.9 1156.56H1789.56V1465.18C1844.52 1438.26 1893.17 1400.39 1932.83 1354.5Z" fill="#DBB153"/>
<path d="M1931.77 1067.05C1908.16 1067.05 1888.86 1047.7 1888.86 1024.04V1008.08C1888.86 984.415 1908.16 965.071 1931.77 965.071C1955.37 965.071 1974.67 984.415 1974.67 1008.08V1024.04C1974.67 1047.7 1955.37 1067.05 1931.77 1067.05Z" fill="#CE928A"/>
<path d="M1652.61 1067.05C1629 1067.05 1609.7 1047.7 1609.7 1024.04V1008.08C1609.7 984.415 1629 965.071 1652.61 965.071C1676.21 965.071 1695.51 984.415 1695.51 1008.08V1024.04C1695.51 1047.7 1676.21 1067.05 1652.61 1067.05Z" fill="#E0A49A"/>
<path d="M1646.92 971.019V906.416V876.306C1646.92 876.306 1653.79 776.961 1759.21 769.887C1844.09 764.19 1879.62 779.277 1888.86 766.757C1900.48 792.548 1888.86 806.695 1888.86 806.695C1888.86 806.695 1920.78 814.52 1931.77 853.645V973.397L1821.66 985.855L1646.92 971.019Z" fill="black"/>
<path d="M1789.57 1170.02C1714.94 1170.02 1653.79 1108.8 1653.79 1033.93V937.779C1653.79 862.972 1714.87 801.688 1789.57 801.688C1864.19 801.688 1925.34 862.91 1925.34 937.779V1033.99C1925.34 1108.8 1864.19 1170.02 1789.57 1170.02Z" fill="#EEB9AC"/>
<path d="M1789.56 801.688C1864.19 801.688 1925.34 862.91 1925.34 937.779V1033.99C1925.34 1108.8 1864.26 1170.09 1789.56 1170.09" fill="#E0A49A"/>
<path d="M1666.03 868.231C1666.03 868.231 1778.26 946.981 1901.91 861.72C1874.19 780.091 1790.94 784.285 1764.9 786.35C1738.92 788.416 1672.84 822.345 1666.03 868.231Z" fill="black"/>
<path d="M1385.38 1214.03H1364.58C1298.01 1214.03 1243.55 1268.62 1243.55 1335.35V1346.74C1308.81 1425.8 1400.43 1482.21 1504.85 1502.61C1505.85 1496.29 1506.47 1489.84 1506.47 1483.27V1335.35C1506.41 1268.62 1451.95 1214.03 1385.38 1214.03Z" fill="#F16570"/>
<path d="M1385.38 1214.03H1373.07V1454.54C1413.61 1477.01 1457.88 1493.47 1504.79 1502.61C1505.78 1496.29 1506.41 1489.84 1506.41 1483.27V1335.35C1506.41 1268.62 1451.95 1214.03 1385.38 1214.03Z" fill="#CF4F5B"/>
<path d="M1497.92 1130.71C1477.49 1130.71 1460.76 1113.93 1460.76 1093.46C1460.76 1072.99 1477.49 1056.22 1497.92 1056.22C1518.34 1056.22 1535.07 1072.99 1535.07 1093.46C1535.01 1113.93 1518.34 1130.71 1497.92 1130.71Z" fill="#CE928A"/>
<path d="M1249.36 1130.71C1228.94 1130.71 1212.2 1113.93 1212.2 1093.46C1212.2 1072.99 1228.94 1056.22 1249.36 1056.22C1269.78 1056.22 1286.52 1072.99 1286.52 1093.46C1286.52 1113.93 1269.78 1130.71 1249.36 1130.71Z" fill="#E0A49A"/>
<path d="M1373.07 1226.49C1303.57 1226.49 1246.73 1169.52 1246.73 1099.85V1010.33C1246.73 940.657 1303.57 883.691 1373.07 883.691C1442.58 883.691 1499.41 940.657 1499.41 1010.33V1099.85C1499.41 1169.52 1442.58 1226.49 1373.07 1226.49Z" fill="#EEB9AC"/>
<path d="M1373.07 883.691C1442.58 883.691 1499.41 940.657 1499.41 1010.33V1099.85C1499.41 1169.52 1442.58 1226.49 1373.07 1226.49" fill="#E0A49A"/>
<path d="M1246.74 1056.4C1246.74 1056.4 1301.76 979.594 1300.19 921.689C1312.68 967.074 1380.26 1029.8 1500.29 1056.4C1512.59 950.798 1476.37 874.74 1373.08 861.469C1293.95 870.045 1218.57 953.865 1246.74 1056.4Z" fill="black"/>
<path d="M1399.8 1257.35C1388.13 1250.02 1372.7 1253.59 1365.39 1265.36C1337.73 1309.81 1303.57 1332.59 1282.02 1341.23C1290.26 1319.7 1302.32 1297.54 1307.87 1288.33C1314.99 1276.5 1311.25 1261.1 1299.44 1253.97C1287.64 1246.83 1272.28 1250.59 1265.16 1262.42C1262.47 1266.93 1243.49 1298.91 1232.18 1332.28C1248.55 1353.88 1266.84 1373.91 1286.7 1392.25C1323.11 1382.36 1372.08 1349.24 1407.8 1291.84C1415.1 1280.13 1411.54 1264.67 1399.8 1257.35Z" fill="#EDB8AB"/>
<path d="M1291.64 1322.89L1240.74 1299.6C1240.74 1299.6 1260.91 1246.52 1306.75 1228.87C1346.35 1254.28 1323.8 1294.72 1323.8 1294.72L1291.64 1322.89Z" fill="#F16570"/>
<path d="M1591.53 1511C1626.5 1511 1660.54 1506.87 1693.26 1499.29C1684.9 1455.72 1646.49 1422.55 1600.71 1422.55H1584.47C1538.51 1422.55 1500.04 1455.97 1491.8 1499.73C1523.9 1507.06 1557.24 1511 1591.53 1511Z" fill="#11B2C0"/>
<path d="M1591.09 1511C1591.22 1511 1591.41 1511 1591.53 1511C1626.5 1511 1660.54 1506.87 1693.26 1499.29C1684.9 1455.72 1646.49 1422.55 1600.71 1422.55H1591.16V1511H1591.09Z" fill="#079CA0"/>
<path d="M1714.44 1414.91C1714.44 1414.91 1790.25 1372.72 1799.68 1272.31" stroke="#EDB8AB" stroke-width="17.0755" stroke-miterlimit="10" stroke-linecap="round"/>
<path d="M1474.93 1414.91C1474.93 1414.91 1399.12 1372.72 1389.69 1272.31" stroke="#EDB8AB" stroke-width="17.0755" stroke-miterlimit="10" stroke-linecap="round"/>
<path d="M1517.34 1483.83L1542.13 1455.22C1548.19 1448.27 1547.44 1437.57 1540.51 1431.5L1490.05 1390.18C1483.11 1384.11 1472.44 1384.86 1466.38 1391.81L1444.02 1419.79C1437.96 1426.74 1438.71 1437.44 1445.64 1443.52L1493.67 1485.4C1500.6 1491.59 1511.28 1490.84 1517.34 1483.83Z" fill="#11B2C0"/>
<path d="M1674.72 1490.9L1637.68 1448.21C1635 1445.14 1635.31 1440.38 1638.43 1437.69L1704.01 1386.55C1707.07 1383.86 1711.81 1384.17 1714.5 1387.3L1748.16 1426.99C1750.85 1430.06 1750.53 1434.81 1747.41 1437.51L1685.27 1491.65C1682.15 1494.35 1677.4 1494.03 1674.72 1490.9Z" fill="#079CA0"/>
<path d="M1930.33 1211.96C1924.71 1199.32 1909.97 1193.68 1897.36 1199.25C1884.74 1204.89 1879.06 1219.66 1884.68 1232.3C1884.93 1232.81 1903.48 1274.75 1917.65 1318.88C1896.3 1318.19 1856.89 1306.67 1827.22 1259.03C1819.92 1247.33 1804.49 1243.7 1792.81 1251.02C1781.13 1258.35 1777.51 1273.81 1784.82 1285.51C1814.23 1332.71 1860.14 1363.7 1907.6 1368.4C1911.53 1368.77 1915.41 1368.96 1919.15 1368.96C1919.34 1368.96 1919.53 1368.96 1919.72 1368.96C1937.08 1350.49 1953 1330.65 1967.12 1309.49C1951.94 1260.79 1931.33 1214.21 1930.33 1211.96Z" fill="#EDB8AB"/>
<path d="M1890.74 1275L1950.82 1253.46L1925.27 1193.99C1925.27 1193.99 1907.35 1168.33 1861.14 1158.5C1844.34 1207.7 1890.74 1275 1890.74 1275Z" fill="#DBB153"/>
<path d="M1599.46 1400.32H1583.79C1528.52 1400.32 1483.24 1355 1483.24 1299.54V1289.77C1483.24 1234.37 1528.45 1188.99 1583.79 1188.99H1599.46C1654.73 1188.99 1700.01 1234.31 1700.01 1289.77V1299.54C1700.01 1355 1654.73 1400.32 1599.46 1400.32Z" fill="black"/>
<path d="M1688.33 1388.99C1672.41 1388.99 1659.42 1375.97 1659.42 1360.01C1659.42 1344.05 1672.41 1331.02 1688.33 1331.02C1704.26 1331.02 1717.25 1344.05 1717.25 1360.01C1717.31 1375.97 1704.26 1388.99 1688.33 1388.99Z" fill="#CE928A"/>
<path d="M1494.67 1388.99C1478.74 1388.99 1465.75 1375.97 1465.75 1360.01C1465.75 1344.05 1478.74 1331.02 1494.67 1331.02C1510.59 1331.02 1523.58 1344.05 1523.58 1360.01C1523.58 1375.97 1510.59 1388.99 1494.67 1388.99Z" fill="#E0A49A"/>
<path d="M1591.09 1451.15C1536.95 1451.15 1492.67 1406.77 1492.67 1352.5V1310.68C1492.67 1256.41 1536.95 1212.02 1591.09 1212.02C1645.24 1212.02 1689.52 1256.41 1689.52 1310.68V1352.5C1689.52 1406.77 1645.24 1451.15 1591.09 1451.15Z" fill="#EEB9AC"/>
<path d="M1591.09 1212.02C1645.24 1212.02 1689.52 1251.77 1689.52 1300.35V1362.82C1689.52 1411.4 1645.24 1451.15 1591.09 1451.15" fill="#E0A49A"/>
<path d="M1492.61 1331.02C1492.61 1331.02 1514.59 1300.35 1518.21 1262.6C1529.14 1294.4 1604.08 1309.55 1676.96 1276.69C1678.53 1290.27 1679.28 1314.19 1689.52 1331.59C1701.07 1303.36 1694.14 1234.93 1646.8 1212.02C1599.46 1189.11 1541.94 1203.13 1523.58 1217.78C1505.22 1232.37 1482.18 1283.51 1492.61 1331.02Z" fill="black"/>
<path d="M1441.9 1092.52C1448.62 1092.52 1454.07 1087.06 1454.07 1080.32C1454.07 1073.57 1448.62 1068.11 1441.9 1068.11C1435.17 1068.11 1429.72 1073.57 1429.72 1080.32C1429.72 1087.06 1435.17 1092.52 1441.9 1092.52Z" fill="black"/>
<path d="M1307.13 1092.52C1313.85 1092.52 1319.3 1087.06 1319.3 1080.32C1319.3 1073.57 1313.85 1068.11 1307.13 1068.11C1300.4 1068.11 1294.95 1073.57 1294.95 1080.32C1294.95 1087.06 1300.4 1092.52 1307.13 1092.52Z" fill="black"/>
<path d="M1414.42 1167.08C1402.99 1175.78 1388.75 1180.91 1373.32 1180.91C1357.65 1180.91 1343.16 1175.59 1331.67 1166.64" stroke="#C67559" stroke-width="15" stroke-miterlimit="10" stroke-linecap="round"/>
<path d="M1857.33 1019.22C1864.05 1019.22 1869.5 1013.75 1869.5 1007.01C1869.5 1000.27 1864.05 994.805 1857.33 994.805C1850.6 994.805 1845.15 1000.27 1845.15 1007.01C1845.15 1013.75 1850.6 1019.22 1857.33 1019.22Z" fill="black"/>
<path d="M1725.61 1022.54C1732.34 1022.54 1737.79 1017.07 1737.79 1010.33C1737.79 1003.59 1732.34 998.123 1725.61 998.123C1718.89 998.123 1713.44 1003.59 1713.44 1010.33C1713.44 1017.07 1718.89 1022.54 1725.61 1022.54Z" fill="black"/>
<path d="M1830.16 1111.86C1818.73 1120.57 1804.49 1125.7 1789.07 1125.7C1773.39 1125.7 1758.9 1120.38 1747.41 1111.43" stroke="#C67559" stroke-width="15" stroke-miterlimit="10" stroke-linecap="round"/>
<path d="M1743.79 969.077H1698.2C1693.39 969.077 1689.52 965.133 1689.52 960.375V954.178C1689.52 949.358 1693.45 945.477 1698.2 945.477H1743.79C1748.6 945.477 1752.47 949.42 1752.47 954.178V960.375C1752.47 965.195 1748.6 969.077 1743.79 969.077Z" fill="black"/>
<path d="M1883.99 969.077H1838.4C1833.59 969.077 1829.72 965.133 1829.72 960.375V954.178C1829.72 949.358 1833.66 945.477 1838.4 945.477H1883.99C1888.8 945.477 1892.67 949.42 1892.67 954.178V960.375C1892.67 965.195 1888.74 969.077 1883.99 969.077Z" fill="black"/>
<path d="M1638.18 1358.32C1644.91 1358.32 1650.36 1352.85 1650.36 1346.11C1650.36 1339.37 1644.91 1333.91 1638.18 1333.91C1631.46 1333.91 1626 1339.37 1626 1346.11C1626 1352.85 1631.46 1358.32 1638.18 1358.32Z" fill="black"/>
<path d="M1542.57 1358.32C1549.29 1358.32 1554.75 1352.85 1554.75 1346.11C1554.75 1339.37 1549.29 1333.91 1542.57 1333.91C1535.84 1333.91 1530.39 1339.37 1530.39 1346.11C1530.39 1352.85 1535.84 1358.32 1542.57 1358.32Z" fill="black"/>
<path d="M1633.06 1406.27C1621.63 1414.97 1607.39 1420.11 1591.97 1420.11C1576.29 1420.11 1561.8 1414.78 1550.31 1405.83" stroke="#C67559" stroke-width="15" stroke-miterlimit="10" stroke-linecap="round"/>
<path d="M1277.71 1042.69C1291.51 1033.24 1307.94 1027.79 1325.55 1027.79C1329.3 1027.79 1332.92 1028.04 1336.54 1028.48" stroke="black" stroke-width="2.13443" stroke-miterlimit="10" stroke-linecap="round"/>
</svg>
