<svg width="234" height="50" viewBox="0 0 234 50" fill="none" xmlns="http://www.w3.org/2000/svg">
<path d="M157.9 18.6433C158.724 17.2405 159.844 16.1471 161.267 15.3581C162.689 14.569 164.265 14.1719 165.999 14.1719C168.035 14.1719 169.815 14.6463 171.335 15.5901C172.854 16.5339 173.964 17.8748 174.66 19.6128H171.739C171.222 18.5298 170.475 17.6943 169.498 17.1115C168.521 16.5288 167.354 16.2348 165.999 16.2348C164.694 16.2348 163.523 16.5288 162.484 17.1115C161.446 17.6943 160.632 18.5246 160.044 19.5974C159.456 20.6701 159.159 21.9336 159.159 23.3777C159.159 24.8062 159.456 26.0543 160.044 27.1322C160.632 28.2049 161.446 29.0352 162.484 29.6231C163.523 30.2059 164.694 30.4999 165.999 30.4999C167.354 30.4999 168.526 30.2111 169.498 29.6386C170.47 29.061 171.217 28.2358 171.739 27.1476H174.66C173.964 28.865 172.854 30.1956 171.335 31.1342C169.815 32.0729 168.035 32.537 165.999 32.537C164.265 32.537 162.689 32.1451 161.267 31.3663C159.844 30.5824 158.724 29.4994 157.9 28.1017C157.077 26.7093 156.667 25.1363 156.667 23.3828C156.667 21.6242 157.077 20.046 157.9 18.6433Z" fill="#6A6C73"/>
<path d="M189.869 28.38H181.715L180.21 32.3769H177.637L184.395 14.5068H187.209L193.941 32.3769H191.368L189.869 28.38ZM189.173 26.4718L185.792 17.3949L182.41 26.4718H189.173Z" fill="#6A6C73"/>
<path d="M208.348 32.3775L203.897 25.0283H200.945V32.3775H198.505V14.4043H204.542C205.954 14.4043 207.146 14.6364 208.123 15.1005C209.095 15.5647 209.826 16.1939 210.307 16.9829C210.788 17.772 211.034 18.6745 211.034 19.6905C211.034 20.9283 210.66 22.0216 209.918 22.9654C209.177 23.9092 208.061 24.5384 206.578 24.8478L211.269 32.3775H208.348ZM200.945 23.1459H204.542C205.867 23.1459 206.859 22.8313 207.519 22.2073C208.179 21.5781 208.511 20.7426 208.511 19.6905C208.511 18.623 208.184 17.7978 207.534 17.215C206.88 16.6322 205.887 16.3383 204.542 16.3383H200.945V23.1459Z" fill="#6A6C73"/>
<path d="M218.861 16.3119V22.3202H225.675V24.2542H218.861V30.4429H226.478V32.3769H216.42V14.3779H226.478V16.3119H218.861Z" fill="#6A6C73"/>
<path d="M62.2904 32.379L56.6886 25.8808H55.7933V32.379H51.5728V15.1021H55.7933V21.9613H56.4072L62.2393 15.1021H67.3039L60.0139 23.7663L67.8155 32.379H62.2904Z" fill="#3DAA37"/>
<path d="M87.4092 32.379H83.2142V25.5456H76.0008V32.379H71.7803V15.1021H76.0008V21.8323H83.2142V15.1021H87.4092V32.379Z" fill="#3DAA37"/>
<path d="M112.733 32.379H108.64V23.7663L104.164 32.379H101.555L97.0526 23.7147V32.379H92.96V15.1021H97.1038L102.859 25.8034L108.614 15.1021H112.733V32.379Z" fill="#3DAA37"/>
<path d="M131.61 32.379H118.258V15.1021H131.533V18.7637H122.478V22.0128H130.792V25.4682H122.478V28.7173H131.61V32.379Z" fill="#3DAA37"/>
<path d="M147.418 32.379L142.251 26.4481H141.023V32.379H136.803V15.1021H145.474C149.183 15.1021 151.639 17.3713 151.639 20.7493C151.639 23.5858 149.899 25.6229 147.137 26.2418L152.508 32.379H147.418ZM145.014 22.8896C146.523 22.8896 147.495 22.0644 147.495 20.8009C147.495 19.5631 146.523 18.7379 145.014 18.7379H141.023V22.8896H145.014Z" fill="#3DAA37"/>
<path d="M52.2018 42.1804H51.501V36.9561H55.0872V37.5801H52.1967V39.1789H54.7393V39.8029H52.1967V42.1804H52.2018Z" fill="#686A71"/>
<path d="M62.3979 36.9561V40.3444C62.3979 41.412 61.7328 42.3145 60.3106 42.3145C58.9191 42.3145 58.3154 41.412 58.3154 40.4372V36.9561H59.0163V40.2413C59.0163 41.3759 59.7018 41.6905 60.3311 41.6905C60.9757 41.6905 61.697 41.3913 61.697 40.2567V36.9561H62.3979Z" fill="#686A71"/>
<path d="M69.4012 36.9561H70.0816V42.1752H69.2938L66.6591 37.9566H66.6438V42.1752H65.9634V36.9561H66.7921L69.3859 41.1747H69.4012V36.9561Z" fill="#686A71"/>
<path d="M73.668 36.9561H75.7706C77.1212 36.9561 77.9499 37.9875 77.9499 39.4934C77.9499 40.6642 77.4435 42.1752 75.7399 42.1752H73.668V36.9561ZM74.3688 41.577H75.7245C76.6352 41.577 77.2286 40.855 77.2286 39.5399C77.2286 38.2247 76.63 37.5646 75.6785 37.5646H74.374V41.577H74.3688Z" fill="#686A71"/>
<path d="M82.1091 42.1804H81.4082V36.9561H82.1091V42.1804Z" fill="#686A71"/>
<path d="M89.1996 36.9561H89.88V42.1752H89.0921L86.4575 37.9617H86.4421V42.1804H85.7617V36.9561H86.5905L89.1842 41.1747H89.1996V36.9561Z" fill="#686A71"/>
<path d="M95.6917 39.3864H97.9682V42.1765H97.5129L97.3492 41.5009C96.9962 41.996 96.3465 42.3158 95.6354 42.3158C94.7452 42.3158 94.3155 41.9909 94.0495 41.7278C93.2565 40.9697 93.231 40.0775 93.231 39.5257C93.231 38.2518 93.9983 36.8232 95.6866 36.8232C96.6535 36.8232 97.7278 37.3751 97.8813 38.5458H97.2009C96.9758 37.6381 96.2186 37.4473 95.6508 37.4473C94.7197 37.4473 93.9523 38.1951 93.9523 39.5618C93.9523 40.6242 94.3002 41.7124 95.6763 41.7124C95.9372 41.7124 96.3567 41.6814 96.7353 41.3771C97.1906 41.011 97.3083 40.5468 97.3083 39.9898H95.6917V39.3864Z" fill="#686A71"/>
<path d="M106.783 40.6597L106.24 42.1811H105.519L107.468 36.9619H108.261L110.139 42.1811H109.371L108.86 40.6597H106.783ZM108.609 40.0357L107.842 37.7355H107.826L106.998 40.0357H108.609Z" fill="#686A71"/>
<path d="M117.685 36.9561H119.966C120.933 36.9561 121.434 37.5595 121.434 38.2712C121.434 38.6115 121.312 39.0912 120.744 39.3645C121.081 39.5038 121.68 39.741 121.68 40.6384C121.68 41.4739 121.066 42.1804 119.92 42.1804H117.69V36.9561H117.685ZM118.385 39.1685H119.649C120.319 39.1685 120.734 38.9674 120.734 38.3227C120.734 37.838 120.437 37.5595 119.659 37.5595H118.391V39.1685H118.385ZM118.385 41.577H119.879C120.611 41.577 120.979 41.2057 120.979 40.6229C120.979 39.8906 120.335 39.741 119.767 39.741H118.385V41.577Z" fill="#686A71"/>
<path d="M128.868 42.1804H125.041V36.9561H128.817V37.5801H125.742V39.1789H128.581V39.8029H125.742V41.5461H128.868V42.1804Z" fill="#686A71"/>
<path d="M131.794 36.9561H136.004V37.5801H134.25V42.1752H133.549V37.5801H131.794V36.9561Z" fill="#686A71"/>
<path d="M138.66 36.9561H142.87V37.5801H141.115V42.1752H140.414V37.5801H138.66V36.9561Z" fill="#686A71"/>
<path d="M149.874 42.1804H146.047V36.9561H149.822V37.5801H146.748V39.1789H149.587V39.8029H146.748V41.5461H149.874V42.1804Z" fill="#686A71"/>
<path d="M154.033 42.1804H153.332V36.9561H155.731C156.586 36.9561 157.435 37.2552 157.435 38.3588C157.435 39.1324 157.046 39.4109 156.714 39.6121C157.01 39.7358 157.307 39.8648 157.333 40.592L157.374 41.5357C157.379 41.8245 157.414 41.938 157.634 42.0566V42.1752H156.775C156.673 41.8555 156.652 41.0613 156.652 40.8653C156.652 40.4372 156.565 39.937 155.726 39.937H154.028V42.1804H154.033ZM154.033 39.3336H155.66C156.171 39.3336 156.714 39.2046 156.714 38.431C156.714 37.6213 156.13 37.5595 155.783 37.5595H154.033V39.3336Z" fill="#686A71"/>
<path d="M164.924 36.9561H169.135V37.5801H167.38V42.1752H166.679V37.5801H164.924V36.9561Z" fill="#686A71"/>
<path d="M174.501 42.3151C172.567 42.3151 171.974 40.6957 171.974 39.5662C171.974 38.4368 172.567 36.8174 174.501 36.8174C176.435 36.8174 177.028 38.4368 177.028 39.5662C177.028 40.6957 176.435 42.3151 174.501 42.3151ZM174.501 37.4466C173.375 37.4466 172.695 38.3388 172.695 39.5714C172.695 40.804 173.375 41.6962 174.501 41.6962C175.626 41.6962 176.307 40.804 176.307 39.5714C176.307 38.3388 175.626 37.4466 174.501 37.4466Z" fill="#686A71"/>
<path d="M184.579 42.1804V39.0963C184.579 38.9416 184.595 38.2815 184.595 37.7967H184.579L183.121 42.1804H182.426L180.968 37.8019H180.952C180.952 38.2815 180.968 38.9416 180.968 39.0963V42.1804H180.287V36.9561H181.29L182.768 41.3707H182.784L184.257 36.9561H185.255V42.1752H184.579V42.1804Z" fill="#686A71"/>
<path d="M191.041 42.3151C189.107 42.3151 188.514 40.6957 188.514 39.5662C188.514 38.4368 189.107 36.8174 191.041 36.8174C192.975 36.8174 193.568 38.4368 193.568 39.5662C193.568 40.6957 192.98 42.3151 191.041 42.3151ZM191.041 37.4466C189.915 37.4466 189.235 38.3388 189.235 39.5714C189.235 40.804 189.915 41.6962 191.041 41.6962C192.166 41.6962 192.847 40.804 192.847 39.5714C192.847 38.3388 192.172 37.4466 191.041 37.4466Z" fill="#686A71"/>
<path d="M197.64 42.1804H196.939V36.9561H199.338C200.193 36.9561 201.042 37.2552 201.042 38.3588C201.042 39.1324 200.653 39.4109 200.321 39.6121C200.617 39.7358 200.914 39.8648 200.94 40.592L200.981 41.5357C200.986 41.8245 201.022 41.938 201.242 42.0566V42.1752H200.382C200.28 41.8555 200.259 41.0613 200.259 40.8653C200.259 40.4372 200.172 39.937 199.333 39.937H197.635V42.1804H197.64ZM197.64 39.3336H199.267C199.778 39.3336 200.321 39.2046 200.321 38.431C200.321 37.6213 199.737 37.5595 199.39 37.5595H197.64V39.3336Z" fill="#686A71"/>
<path d="M205.309 42.1804H204.608V36.9561H207.007C207.861 36.9561 208.711 37.2552 208.711 38.3588C208.711 39.1324 208.322 39.4109 207.989 39.6121C208.286 39.7358 208.583 39.8648 208.608 40.592L208.649 41.5357C208.654 41.8245 208.69 41.938 208.91 42.0566V42.1752H208.051C207.948 41.8555 207.928 41.0613 207.928 40.8653C207.928 40.4372 207.841 39.937 207.002 39.937H205.304V42.1804H205.309ZM205.309 39.3336H206.935C207.447 39.3336 207.989 39.2046 207.989 38.431C207.989 37.6213 207.406 37.5595 207.058 37.5595H205.309V39.3336Z" fill="#686A71"/>
<path d="M214.45 42.3151C212.517 42.3151 211.923 40.6957 211.923 39.5662C211.923 38.4368 212.517 36.8174 214.45 36.8174C216.384 36.8174 216.978 38.4368 216.978 39.5662C216.978 40.6957 216.384 42.3151 214.45 42.3151ZM214.45 37.4466C213.325 37.4466 212.645 38.3388 212.645 39.5714C212.645 40.804 213.325 41.6962 214.45 41.6962C215.576 41.6962 216.256 40.804 216.256 39.5714C216.256 38.3388 215.576 37.4466 214.45 37.4466Z" fill="#686A71"/>
<path d="M221.915 42.1811H221.178L219.828 36.9619H220.585L221.552 41.2064H221.567L222.728 36.9619H223.496L224.657 41.2064H224.672L225.639 36.9619H226.412L225.046 42.1811H224.309L223.122 37.8541H223.107L221.915 42.1811Z" fill="#686A71"/>
<path d="M23.9681 43.9914C17.8751 43.9914 12.084 41.0311 8.47734 36.075C7.82251 35.1776 8.01692 33.9089 8.90707 33.2539C9.79723 32.5938 11.0506 32.7898 11.7054 33.6871C14.5601 37.6118 19.1439 39.9533 23.963 39.9533C28.7923 39.9533 33.3761 37.6067 36.2359 33.6717C36.8907 32.7691 38.1441 32.5783 39.0343 33.2333C39.9295 33.8934 40.1239 35.157 39.4691 36.0543C35.8624 41.0208 30.0662 43.9914 23.9681 43.9914Z" fill="#3DAA37"/>
<path d="M23.968 4.87402C13.2913 4.87402 4.63525 13.6002 4.63525 24.3635C4.63525 27.7466 5.4896 30.9287 6.99366 33.6982C7.21364 33.1051 7.60244 32.5636 8.14984 32.1613C8.87117 31.6249 9.73575 31.4289 10.5594 31.5373C10.4724 31.006 10.4213 30.4594 10.3957 29.9075C10.3906 29.7219 10.3855 29.5311 10.3855 29.3402C10.3855 29.1649 10.3906 28.9895 10.3957 28.8194C10.411 28.4274 10.4417 28.0458 10.4878 27.6641C10.498 27.5868 10.5031 27.5146 10.5185 27.4424C10.5594 27.1432 10.6106 26.8441 10.6719 26.5501C10.7078 26.3696 10.7487 26.1891 10.7947 26.0138C10.8919 25.6218 11.0045 25.2402 11.1324 24.8637C11.3012 24.3738 11.4905 23.9044 11.7105 23.4403C11.8742 23.0948 12.0532 22.7544 12.2425 22.4295C12.3448 22.2541 12.4523 22.0788 12.5597 21.9034C12.6518 21.759 12.7439 21.6198 12.8411 21.4805C12.8871 21.4135 12.928 21.3516 12.9792 21.2897C13.0764 21.1505 13.1787 21.0164 13.2861 20.8823C13.9563 20.021 14.7237 19.2423 15.578 18.5615C15.8901 18.3139 16.2124 18.0819 16.5449 17.8601C16.7035 17.7518 16.8672 17.6538 17.0309 17.5558C17.3686 17.3495 17.7113 17.1639 18.0694 16.9885C18.5248 16.7616 18.9954 16.5656 19.4814 16.3954C19.8344 16.2665 20.1976 16.1582 20.5711 16.0602C20.7655 16.0086 20.965 15.9622 21.1645 15.9158C21.3027 15.8849 21.4408 15.8591 21.584 15.8333C21.671 15.8178 21.7631 15.8023 21.8552 15.7869C22.0138 15.7611 22.1672 15.7404 22.3258 15.7198C22.8783 15.6528 23.4462 15.6167 24.0192 15.6167C24.6024 15.6167 25.1754 15.6528 25.7381 15.725C26.0962 15.7714 26.4543 15.8281 26.8073 15.9055C26.9864 15.9416 27.1654 15.9828 27.3393 16.0293C27.7384 16.1272 28.1272 16.2459 28.5058 16.38C28.9815 16.545 29.4471 16.741 29.8973 16.9576C30.2298 17.1174 30.5572 17.2928 30.8744 17.4785C31.0483 17.5816 31.2172 17.6847 31.3809 17.7931C31.5088 17.8756 31.6315 17.9581 31.7543 18.0406C31.8259 18.0922 31.8976 18.1437 31.9692 18.1953C32.1175 18.3036 32.2608 18.4119 32.404 18.5202C33.2788 19.2113 34.0718 20.0055 34.7573 20.8926C34.9875 21.1866 35.2024 21.496 35.4121 21.8106C35.5196 21.9705 35.6219 22.1355 35.7191 22.3005C35.9237 22.6461 36.113 22.9968 36.287 23.3578C36.5069 23.8168 36.7065 24.2861 36.8753 24.7709C36.9878 25.0958 37.0901 25.4259 37.1822 25.7611C37.2334 25.9519 37.2794 26.1427 37.3255 26.3387C37.4022 26.6791 37.4636 27.0195 37.5096 27.365C37.525 27.4527 37.5352 27.5403 37.5455 27.6332C37.5915 27.9993 37.6222 28.3758 37.6375 28.7523C37.6478 28.9483 37.6529 29.1443 37.6529 29.3402C37.6529 29.5156 37.6478 29.6961 37.6427 29.8714C37.6222 30.4284 37.5659 30.9751 37.4841 31.5166C38.3026 31.4083 39.1621 31.6043 39.8834 32.1355C40.4103 32.5223 40.794 33.038 41.014 33.6105C42.4925 30.8565 43.3264 27.7054 43.3264 24.3583C43.3008 13.6002 34.6448 4.87402 23.968 4.87402Z" fill="url(#paint0_radial_10064_3572)"/>
<path d="M24.019 37.1691C28.322 37.1691 31.8104 33.6525 31.8104 29.3145C31.8104 24.9766 28.322 21.46 24.019 21.46C19.7159 21.46 16.2275 24.9766 16.2275 29.3145C16.2275 33.6525 19.7159 37.1691 24.019 37.1691Z" fill="#3DAA37"/>
<path opacity="0.3" d="M36.6859 21.3359L35.6985 22.3004C35.6013 22.1353 35.499 21.9703 35.3916 21.8104L36.6859 21.3359Z" fill="white"/>
<path opacity="0.3" d="M27.4059 14.6523L27.324 16.0242C27.1501 15.9778 26.971 15.9365 26.792 15.9004L27.4059 14.6523Z" fill="white"/>
<path opacity="0.3" d="M21.1441 15.9159C20.9446 15.9572 20.7451 16.0036 20.5507 16.0603L20.5098 14.6523L21.1441 15.9159Z" fill="white"/>
<path opacity="0.3" d="M17.0154 17.5557C16.8517 17.6537 16.6931 17.7568 16.5294 17.8599L16.1201 16.6016L17.0154 17.5557Z" fill="white"/>
<path opacity="0.3" d="M12.5494 21.9031C12.4369 22.0733 12.3295 22.2486 12.2323 22.4291L11.2603 21.4854L12.5494 21.9031Z" fill="white"/>
<path opacity="0.25" d="M10.7796 26.0195C10.7335 26.1948 10.6977 26.3753 10.6568 26.5558L9.45459 25.9834L10.7796 26.0195Z" fill="white"/>
<path d="M10.508 27.4472C10.4978 27.5194 10.4875 27.5968 10.4773 27.669L5.97536 27.4627L5.87305 27.21L10.508 27.4472Z" fill="url(#paint1_linear_10064_3572)"/>
<path d="M12.9691 21.2902C12.9231 21.3573 12.877 21.4191 12.831 21.4862L7.29053 17.5873L7.43377 17.3604L12.9691 21.2902Z" fill="url(#paint2_linear_10064_3572)"/>
<path d="M21.8348 15.7869C21.7427 15.8024 21.6506 15.8179 21.5636 15.8333L20.5098 9.07211L20.8321 8.8916L21.8348 15.7869Z" fill="url(#paint3_linear_10064_3572)"/>
<path d="M36.0361 12.0117V12.3985L31.9536 18.1953C31.882 18.1437 31.8104 18.0922 31.7388 18.0406L36.0361 12.0117Z" fill="url(#paint4_linear_10064_3572)"/>
<path d="M41.6538 27.0504L37.5202 27.6384C37.51 27.5507 37.4997 27.463 37.4844 27.3702L41.6129 26.8184L41.6538 27.0504Z" fill="url(#paint5_linear_10064_3572)"/>
<path opacity="0.25" d="M25.7228 15.7199C25.1601 15.6477 24.5871 15.6116 24.0039 15.6116C23.4309 15.6116 22.8682 15.6477 22.3105 15.7147L23.9988 8.10254L25.7228 15.7199Z" fill="white"/>
<path opacity="0.25" d="M38.9162 14.3213L34.7366 20.8917C34.0511 20.0098 33.2632 19.2104 32.3833 18.5193L38.9162 14.3213Z" fill="white"/>
<path opacity="0.3" d="M39.7247 22.7178L36.8496 24.7755C36.6807 24.2907 36.4863 23.8214 36.2612 23.3624L39.7247 22.7178Z" fill="white"/>
<path opacity="0.3" d="M30.511 13.4248L29.8818 16.9576C29.4316 16.7409 28.966 16.545 28.4902 16.3799L30.511 13.4248Z" fill="white"/>
<path opacity="0.3" d="M19.461 16.3954C18.975 16.5656 18.5043 16.7667 18.049 16.9885L17.4556 13.4248L19.461 16.3954Z" fill="white"/>
<path opacity="0.25" d="M13.2759 20.8814L9.10645 14.3213L15.5677 18.5606C14.7134 19.2414 13.9409 20.0201 13.2759 20.8814Z" fill="white"/>
<path opacity="0.3" d="M11.6952 23.4457C11.4752 23.9047 11.2859 24.3791 11.1171 24.8691L8.26758 22.8887L11.6952 23.4457Z" fill="white"/>
<path opacity="0.25" d="M10.3753 29.3461C10.3753 29.5369 10.3804 29.7226 10.3855 29.9134L8.26758 29.3461L10.3855 28.8252C10.3804 29.0005 10.3753 29.1707 10.3753 29.3461Z" fill="white"/>
<path opacity="0.25" d="M37.6169 29.8818C37.622 29.7065 37.6272 29.526 37.6272 29.3506C37.6272 29.1546 37.622 28.9587 37.6118 28.7627L39.7247 29.4538L37.6169 29.8818Z" fill="white"/>
<path opacity="0.3" d="M38.492 25.8488L37.3 26.3491C37.2591 26.1531 37.213 25.9623 37.1567 25.7715L38.492 25.8488Z" fill="white"/>
<defs>
<radialGradient id="paint0_radial_10064_3572" cx="0" cy="0" r="1" gradientUnits="userSpaceOnUse" gradientTransform="translate(23.6985 23.5285) scale(15.6168 15.7339)">
<stop offset="0.7405" stop-color="#F8D301"/>
<stop offset="0.9784" stop-color="#F7A521" stop-opacity="0.9"/>
</radialGradient>
<linearGradient id="paint1_linear_10064_3572" x1="5.87745" y1="27.4398" x2="10.5083" y2="27.4398" gradientUnits="userSpaceOnUse">
<stop offset="0.0189" stop-color="#F8D301" stop-opacity="0"/>
<stop offset="1" stop-color="white" stop-opacity="0.4"/>
</linearGradient>
<linearGradient id="paint2_linear_10064_3572" x1="7.29232" y1="19.4241" x2="12.9677" y2="19.4241" gradientUnits="userSpaceOnUse">
<stop offset="0.0189" stop-color="#F8D301" stop-opacity="0"/>
<stop offset="1" stop-color="white" stop-opacity="0.4"/>
</linearGradient>
<linearGradient id="paint3_linear_10064_3572" x1="20.5103" y1="12.3618" x2="21.8366" y2="12.3618" gradientUnits="userSpaceOnUse">
<stop offset="0.0189" stop-color="#F8D301" stop-opacity="0"/>
<stop offset="1" stop-color="white" stop-opacity="0.4"/>
</linearGradient>
<linearGradient id="paint4_linear_10064_3572" x1="31.7378" y1="15.1033" x2="36.0361" y2="15.1033" gradientUnits="userSpaceOnUse">
<stop offset="0.0865" stop-color="white" stop-opacity="0.4"/>
<stop offset="1" stop-color="#F8D301" stop-opacity="0"/>
</linearGradient>
<linearGradient id="paint5_linear_10064_3572" x1="37.4845" y1="27.2315" x2="41.6559" y2="27.2315" gradientUnits="userSpaceOnUse">
<stop stop-color="white" stop-opacity="0.4"/>
<stop offset="1" stop-color="#F8D301" stop-opacity="0"/>
</linearGradient>
</defs>
</svg>
